<svg xmlns="http://www.w3.org/2000/svg" width="136.002" height="135.979" viewBox="0 0 136.002 135.979">
  <defs>
    <style>
      .cls-1 {
        fill: #eee;
      }

      .cls-2 {
        fill: #62a7ff;
      }

      .cls-3 {
        fill: #58deb6;
      }

      .cls-4 {
        fill: #ffb35e;
      }
    </style>
  </defs>
  <g id="Circle" transform="translate(-548.996 -705.012)">
    <path id="Shape_24" data-name="Shape 24" class="cls-1" d="M616.994,840.992a67.984,67.984,0,1,1,68-67.984A68.068,68.068,0,0,1,616.994,840.992Zm0-125.866a57.881,57.881,0,1,0,57.893,57.881A57.952,57.952,0,0,0,616.994,715.126Z"/>
    <path id="Shape_25" data-name="Shape 25" class="cls-2" d="M672.013,807.426a5.01,5.01,0,0,1-3.57-1.482,5.09,5.09,0,0,1-.81-6.059,57.595,57.595,0,0,0-.334-56.76l-.32-.557,7.311-7.325.557.9a67.739,67.739,0,0,1,1.527,68.743,5,5,0,0,1-4.361,2.542Z"/>
    <path id="Shape_26" data-name="Shape 26" class="cls-3" d="M667.82,744.336a58.086,58.086,0,0,0-50.206-29.2c-.758,0-1.51.028-2.261.058l-.874.033V705.1l1.219-.041c.636-.022,1.273-.044,1.915-.044a67.632,67.632,0,0,1,57.792,32.3l.352.569-7.39,7.409Z"/>
    <path id="Shape_27" data-name="Shape 27" class="cls-4" d="M554.1,768.812a4.979,4.979,0,0,1-4.93-5.658,67.269,67.269,0,0,1,64.43-58.109l.863-.029V715.05l-.8.031a57.337,57.337,0,0,0-54.56,49.382,4.974,4.974,0,0,1-4.93,4.349Z"/>
  </g>
</svg>
