<svg width="17" height="14" xmlns="http://www.w3.org/2000/svg" xmlns:xlink="http://www.w3.org/1999/xlink" xmlns:svgjs="http://svgjs.com/svgjs" viewBox="0 0.095 17 13.811"><svg xmlns="http://www.w3.org/2000/svg" width="17" height="14" viewBox="1.999 2 16.002 13" fill="#ff3a4c"><path fill="#FF3A4C" paint-order="stroke fill markers" fill-rule="evenodd" d="M9.697 11.466c.438 0 .794.348.794.776v.818c0 .214.179.388.398.388h5.126c.219 0 .397-.174.397-.388V3.94a.393.393 0 0 0-.397-.388h-5.126a.393.393 0 0 0-.398.388v1.012a.786.786 0 0 1-.794.776h-.002a.786.786 0 0 1-.795-.776V3.94C8.9 2.87 9.791 2 10.887 2h5.128C17.11 2 18 2.87 18 3.94v9.12c0 1.07-.89 1.94-1.986 1.94h-5.126c-1.096 0-1.987-.87-1.987-1.94v-.818c0-.428.357-.776.795-.776zm-7.463-3.42l3.246-3.13a.809.809 0 0 1 1.123.045.767.767 0 0 1-.012 1.063L4.725 7.827h8.645c.434 0 .79.344.795.768v.002a.787.787 0 0 1-.795.776H4.725l1.87 1.807a.76.76 0 0 1-.03 1.097.813.813 0 0 1-1.09.003l-3.24-3.13a.767.767 0 0 1 0-1.104z"/></svg></svg>