<svg width="17" height="15" fill='#FE9230' xmlns="http://www.w3.org/2000/svg" xmlns:xlink="http://www.w3.org/1999/xlink" xmlns:svgjs="http://svgjs.com/svgjs" viewBox="0 0.06 17 14.88"><svg xmlns="http://www.w3.org/2000/svg" width="17" height="15" viewBox="2.001 1 15.994 13.999" ><path paint-order="stroke fill markers" fill-rule="evenodd" d="M17.503 5.63a.728.728 0 0 0-.198-.028H15.79V3.728a.699.699 0 0 0-.685-.71H8.25V1.712A.699.699 0 0 0 7.565 1h-4.87a.686.686 0 0 0-.065 0l-.163.008v.027a.704.704 0 0 0-.466.675V14.311c.002.03.006.06.01.09l.004.025a.738.738 0 0 0 .012.064l.016.053.02.045.025.044.01.022a.752.752 0 0 0 .02.035l.024.03a.556.556 0 0 0 .027.034l.003.003c.01.012.021.026.04.046.028.03.059.057.092.081l.084.049a.769.769 0 0 0 .05.022l.027.008.021.009.04.011h.01l.032.008.025.003a.702.702 0 0 0 .042.005h10.746a.561.561 0 0 0 .063 0H15.107a.691.691 0 0 0 .66-.516l2.04-7.395.16-.576a.715.715 0 0 0-.464-.88zM7.565 4.44h6.854v1.164H4.887a.692.692 0 0 0-.657.516l-.858 3.107V2.421h3.507v1.308c0 .391.308.71.686.71zm8.833 2.583L14.59 13.58H3.599l1.809-6.558H14.9a.662.662 0 0 0 .41 0h1.088z"/></svg></svg>