<svg width="18" height="19" fill="rgba(64,68,71,0.4)" xmlns="http://www.w3.org/2000/svg" xmlns:xlink="http://www.w3.org/1999/xlink" xmlns:svgjs="http://svgjs.com/svgjs" viewBox="0.396 0 17.208 19"><svg xmlns="http://www.w3.org/2000/svg" width="18" height="19" viewBox="2 2 16.302 18"><path paint-order="stroke fill markers" fill-rule="evenodd" d="M7.229 16.946h1.538c0 .8.62 1.447 1.384 1.447.764 0 1.384-.648 1.384-1.447h1.538c0 1.687-1.308 3.054-2.922 3.054s-2.922-1.367-2.922-3.054zm11.073-2.25v.322c0 .801-.62 1.446-1.385 1.446H3.384C2.62 16.464 2 15.817 2 15.018v-.322c0-1.165.793-2.137 1.845-2.362V8.59C3.845 4.949 6.668 2 10.151 2s6.305 2.95 6.305 6.589v3.745c1.054.224 1.846 1.196 1.846 2.362zm-1.538 0c0-.444-.344-.803-.772-.803-.593 0-1.074-.506-1.074-1.123V8.59c0-2.752-2.134-4.982-4.767-4.982-2.634 0-4.768 2.23-4.768 4.982v4.181c0 .62-.482 1.123-1.073 1.123-.427 0-.772.36-.772.803v.161h13.226v-.161z"/></svg></svg>