<svg width="17" height="17" fill="rgba(64,68,71,0.8)" xmlns="http://www.w3.org/2000/svg" xmlns:xlink="http://www.w3.org/1999/xlink" xmlns:svgjs="http://svgjs.com/svgjs"><svg xmlns="http://www.w3.org/2000/svg" width="17" height="17" viewBox="2 2 16 16"><path  paint-order="stroke fill markers" fill-rule="evenodd" d="M7.96 10.941H3.099A1.1 1.1 0 0 0 2 12.04v4.863A1.1 1.1 0 0 0 3.098 18H7.96a1.1 1.1 0 0 0 1.098-1.098v-4.863a1.1 1.1 0 0 0-1.098-1.098zm-.156 1.255v4.55h-4.55v-4.55h4.55zM7.96 2H3.098A1.1 1.1 0 0 0 2 3.098v4.863a1.1 1.1 0 0 0 1.098 1.098H7.96A1.1 1.1 0 0 0 9.059 7.96V3.098A1.1 1.1 0 0 0 7.96 2zm-.157 1.255v4.549h-4.55v-4.55h4.55zM16.902 2h-4.863a1.1 1.1 0 0 0-1.098 1.098v4.863a1.1 1.1 0 0 0 1.098 1.098h4.863A1.1 1.1 0 0 0 18 7.96V3.098A1.1 1.1 0 0 0 16.902 2zm-.157 1.255v4.549h-4.549v-4.55h4.549zm.157 7.686h-4.863a1.1 1.1 0 0 0-1.098 1.098v4.863A1.1 1.1 0 0 0 12.04 18h4.863A1.1 1.1 0 0 0 18 16.902v-4.863a1.1 1.1 0 0 0-1.098-1.098zm-.157 1.255v4.55h-4.549v-4.55h4.549z"/></svg></svg>