<svg width="17" height="19" fill="rgba(64,68,71,0.8)" xmlns="http://www.w3.org/2000/svg" xmlns:xlink="http://www.w3.org/1999/xlink" xmlns:svgjs="http://svgjs.com/svgjs" viewBox="0.056 0 16.888 19"><svg xmlns="http://www.w3.org/2000/svg" width="17" height="19" viewBox="2 2.006 15.994 17.994" ><path paint-order="stroke fill markers" fill-rule="evenodd" d="M6.569 6.543h1.524v1.02c.443.186.815.528 1.007.995l-1.415.561c-.06-.15-.257-.255-.466-.202-.208.054-.293.201-.265.353.028.151.185.283.402.27h.054c.859.043 1.637.58 1.795 1.435.155.84-.34 1.65-1.115 1.978v1.019H6.566V12.95a1.844 1.844 0 0 1-1.008-.997l1.414-.559c.061.15.26.257.468.203.208-.054.293-.203.265-.355-.028-.15-.186-.28-.402-.268h-.054c-.859-.044-1.639-.581-1.797-1.436-.155-.84.342-1.65 1.117-1.978V6.543zM5.804 2.01C3.72 2.01 2 3.666 2 5.704V17.79l2.283 2.21 1.521-1.472L7.324 20l1.522-1.471L10.367 20l2.282-2.209.01-9.786h5.334V5.762c.007-.837-.285-1.715-.854-2.445-.554-.71-1.428-1.271-2.497-1.305-2.875-.012-5.892 0-8.838 0V2.01zm8.73 1.495h.016c.593 0 1.031.28 1.379.724.347.446.544 1.064.54 1.521v.753h-3.81v-.805c.001-.665.203-1.226.522-1.6.315-.37.729-.589 1.353-.595v.002zm-8.73.009h6.001a3.985 3.985 0 0 0-.67 2.19l-.009 11.464-.759.735-1.521-1.473-1.522 1.473-1.52-1.473-1.52 1.473-.76-.735V5.708c.025-1.24 1.12-2.205 2.28-2.194z"/></svg></svg>