<svg width="18" height="19" fill='rgba(64,68,71,0.4)' xmlns="http://www.w3.org/2000/svg" xmlns:xlink="http://www.w3.org/1999/xlink" xmlns:svgjs="http://svgjs.com/svgjs" viewBox="0 0.575 18 17.849"><svg xmlns="http://www.w3.org/2000/svg" width="18" height="19" viewBox="2.43 1.887 16.325 16.188"><path paint-order="stroke fill markers" fill-rule="evenodd" d="M14.352 12.544l4.16 4.126c.324.32.325.84-.002 1.165a.841.841 0 0 1-1.175.002l-4.16-4.125c-2.613 2.016-6.392 1.834-8.794-.548a6.567 6.567 0 0 1 0-9.342c2.601-2.58 6.818-2.58 9.42 0a6.567 6.567 0 0 1 .551 8.722zm-1.73-.548a4.925 4.925 0 0 0 0-7.006 5.024 5.024 0 0 0-7.063 0 4.925 4.925 0 0 0 0 7.006 5.024 5.024 0 0 0 7.064 0z"/></svg></svg>