<svg width="17" height="17" xmlns="http://www.w3.org/2000/svg" xmlns:xlink="http://www.w3.org/1999/xlink" xmlns:svgjs="http://svgjs.com/svgjs" viewBox="0 0.008 17 16.984"><svg xmlns="http://www.w3.org/2000/svg" width="17" height="17" viewBox="1.997 1.003 16.007 15.992" ><path paint-order="stroke fill markers" fill-rule="evenodd" d="M16.42 2.446h-1.787v-.661a.783.783 0 0 0-1.564 0v.661h-2.287v-.661a.783.783 0 0 0-1.564 0v.661H6.93v-.661a.783.783 0 0 0-1.565 0v.661H3.581c-.874 0-1.584.71-1.584 1.583v11.383c0 .873.71 1.583 1.584 1.583H16.42c.874 0 1.584-.71 1.584-1.583V4.029c0-.873-.71-1.583-1.584-1.583zM3.58 4.009h1.785v.661a.783.783 0 0 0 1.565 0V4.01h2.287v.661a.783.783 0 0 0 1.564 0V4.01h2.287v.661a.783.783 0 0 0 1.564 0v-.658l1.806.017v11.383l-.02.02-12.858-.02.02-11.403zm10.034 4.822H6.528a.722.722 0 1 1 0-1.443h7.087a.722.722 0 1 1 0 1.443zm0 4.31H6.528a.722.722 0 1 1 0-1.443h7.087a.722.722 0 1 1 0 1.443z"/></svg></svg>