<svg width="9" height="17" xmlns="http://www.w3.org/2000/svg" xmlns:xlink="http://www.w3.org/1999/xlink" xmlns:svgjs="http://svgjs.com/svgjs" viewBox="0.247 0 8.506 17"><svg xmlns="http://www.w3.org/2000/svg" width="9" height="17" viewBox="1.998 2 8.005 16" ><path paint-order="stroke fill markers" fill-rule="evenodd" d="M6.034 2C3.82 2 1.998 3.902 1.998 6.213c0 .694.562 1.28 1.243 1.28.698 0 1.243-.586 1.243-1.28 0-.889.699-1.617 1.55-1.617.835 0 1.516.728 1.516 1.617 0 .818-.34 1.227-.97 1.974-.784.835-1.823 1.99-1.823 4.195 0 .747.562 1.316 1.26 1.316.681 0 1.226-.57 1.226-1.316 0-1.19.477-1.724 1.124-2.435.733-.836 1.635-1.85 1.635-3.752C10.036 3.902 8.248 2 6.034 2zm0 12.871c-.834 0-1.516.676-1.516 1.565 0 .87.682 1.564 1.516 1.564.8 0 1.499-.693 1.499-1.564 0-.872-.681-1.565-1.499-1.565z"/></svg></svg>