<svg width="17" height="16" xmlns="http://www.w3.org/2000/svg" xmlns:xlink="http://www.w3.org/1999/xlink" xmlns:svgjs="http://svgjs.com/svgjs" viewBox="0 0.032 17 15.936"><svg xmlns="http://www.w3.org/2000/svg" width="17" height="16" viewBox="2 2 16 14.999" ><path paint-order="stroke fill markers" fill-rule="evenodd" d="M15.69 4.636h-1.163v-.352a2.25 2.25 0 0 0-.674-1.614A2.31 2.31 0 0 0 12.221 2H4.12C2.95 2 2 2.938 2 4.092v10.627c0 1.257 1.036 2.28 2.31 2.28h11.38c1.274 0 2.31-1.023 2.31-2.28V6.916c0-1.257-1.036-2.28-2.31-2.28zM3.57 6.11l.015.004.09.022.051.006c.013 0 .025.004.037.007.023.004.045.009.068.012l.078.002c.067.006.134.01.201.01h11.58c.407 0 .738.326.738.743v7.8a.734.734 0 0 1-.738.728H4.308a.734.734 0 0 1-.738-.729V6.11zm9.385-1.478H4.12a.545.545 0 0 1-.548-.54c0-.299.245-.541.548-.541h8.097c.407 0 .738.327.738.729v.352zm.96 8.463a.782.782 0 0 0 .785-.775V9.182a.782.782 0 0 0-.786-.776.782.782 0 0 0-.786.776v3.138c0 .427.353.775.786.775z"/></svg></svg>