<svg width="17" height="17" fill="rgba(64,68,71,0.8)" xmlns="http://www.w3.org/2000/svg" xmlns:xlink="http://www.w3.org/1999/xlink" xmlns:svgjs="http://svgjs.com/svgjs" viewBox="0 0.002 17 16.996"><svg xmlns="http://www.w3.org/2000/svg" width="17" height="17" viewBox="1.004 1.005 15.999 15.996" ><path paint-order="stroke fill markers" fill-rule="evenodd" d="M16.177 15.368H2.635V1.821a.817.817 0 0 0-1.631 0v14.363c0 .45.365.816.815.816h14.358a.817.817 0 0 0 0-1.632zM6.32 10.216l2.678-2.658 2.661 2.635c.141.169.35.262.555.262a.636.636 0 0 0 .165-.021.795.795 0 0 0 .448-.207l3.746-2.993a.946.946 0 0 0 .292-1.288.757.757 0 0 0-1.064-.242L12.305 8.53l-2.723-2.7a.83.83 0 0 0-1.169 0L5.156 9.061a.81.81 0 0 0-.239.577c0 .218.085.423.24.578a.83.83 0 0 0 1.163 0z"/></svg></svg>