<svg width="19" height="14" fill="rgba(64,68,71,0.4)" xmlns="http://www.w3.org/2000/svg" xmlns:xlink="http://www.w3.org/1999/xlink" xmlns:svgjs="http://svgjs.com/svgjs" viewBox="0 0.131 19 13.738"><svg xmlns="http://www.w3.org/2000/svg" width="19" height="14" viewBox="1.012 1.006 17.988 13.006"><path paint-order="stroke fill markers" fill-rule="evenodd" d="M16.956 1.006h-13.9c-1.127 0-2.044.874-2.044 1.948v9.11c0 1.075.917 1.949 2.044 1.949h13.9c1.127 0 2.044-.874 2.044-1.948v-9.11c0-1.075-.917-1.949-2.044-1.949zM2.646 3.64l6.176 5.689a1.755 1.755 0 0 0 2.367 0l6.176-5.69v8.427c0 .226-.172.39-.41.39h-13.9c-.236 0-.408-.164-.408-.39V3.639zm7.42 4.553a.358.358 0 0 1-.12 0l-6.11-5.627h12.34l-6.11 5.627z"/></svg></svg>